<?xml version="1.0" encoding="UTF-8" standalone="no"?>
<svg
   version="1.1"
   id="Layer_1"
   x="0px"
   y="0px"
   width="100px"
   height="100px"
   viewBox="0 0 100 100"
   enable-background="new 0 0 100 100"
   xml:space="preserve"
   sodipodi:docname="icon2.svg"
   inkscape:version="1.2.2 (b0a8486541, 2022-12-01)"
   xmlns:inkscape="http://www.inkscape.org/namespaces/inkscape"
   xmlns:sodipodi="http://sodipodi.sourceforge.net/DTD/sodipodi-0.dtd"
   xmlns="http://www.w3.org/2000/svg"
   xmlns:svg="http://www.w3.org/2000/svg"><defs
   id="defs9"><rect
     x="28.339021"
     y="6.1340098"
     width="44.029125"
     height="16.074742"
     id="rect166" /></defs><sodipodi:namedview
   id="namedview7"
   pagecolor="#ffffff"
   bordercolor="#000000"
   borderopacity="0.25"
   inkscape:showpageshadow="2"
   inkscape:pageopacity="0.0"
   inkscape:pagecheckerboard="0"
   inkscape:deskcolor="#d1d1d1"
   showgrid="false"
   inkscape:zoom="5.22"
   inkscape:cx="50"
   inkscape:cy="50.191571"
   inkscape:window-width="1470"
   inkscape:window-height="799"
   inkscape:window-x="0"
   inkscape:window-y="0"
   inkscape:window-maximized="1"
   inkscape:current-layer="Layer_1" />
<g
   id="g4">
	<path
   d="M10.468,34.748v-1.412H4.536v1.412H10.468L10.468,34.748z M90.955,34.748h5.486v-1.412h-5.486V34.748L90.955,34.748z    M70.091,87.301v1.959c0,0.779,0.632,1.412,1.411,1.412h1.96c0.78,0,1.413-0.633,1.413-1.412v-1.959   c0-0.78-0.633-1.412-1.413-1.412h-1.96C70.723,85.889,70.091,86.521,70.091,87.301L70.091,87.301z M76.341,87.301v1.959   c0,0.779,0.632,1.412,1.413,1.412h1.958c0.778,0,1.411-0.633,1.411-1.412v-1.959c0-0.78-0.633-1.412-1.411-1.412h-1.958   C76.973,85.889,76.341,86.521,76.341,87.301L76.341,87.301z M26.315,92.522v1.614c0,0.389,0.316,0.704,0.706,0.704h47.13   c0.391,0,0.707-0.315,0.707-0.704v-1.614c0-0.392-0.316-0.706-0.707-0.706h-47.13C26.631,91.816,26.315,92.131,26.315,92.522   L26.315,92.522z M16.979,81.497v1.958c0,0.781,0.633,1.414,1.413,1.414h1.958c0.78,0,1.413-0.633,1.413-1.414v-1.958   c0-0.78-0.632-1.413-1.413-1.413h-1.958C17.611,80.084,16.979,80.717,16.979,81.497L16.979,81.497z M23.229,81.497v1.958   c0,0.781,0.632,1.414,1.412,1.414h1.958c0.781,0,1.414-0.633,1.414-1.414v-1.958c0-0.78-0.633-1.413-1.414-1.413h-1.958   C23.861,80.084,23.229,80.717,23.229,81.497L23.229,81.497z M29.479,81.497v1.958c0,0.781,0.632,1.414,1.412,1.414h1.958   c0.781,0,1.414-0.633,1.414-1.414v-1.958c0-0.78-0.633-1.413-1.414-1.413h-1.958C30.111,80.084,29.479,80.717,29.479,81.497   L29.479,81.497z M35.729,81.497v1.958c0,0.781,0.633,1.414,1.413,1.414h1.958c0.78,0,1.413-0.633,1.413-1.414v-1.958   c0-0.78-0.633-1.413-1.413-1.413h-1.958C36.362,80.084,35.729,80.717,35.729,81.497L35.729,81.497z M41.979,81.497v1.958   c0,0.781,0.632,1.414,1.413,1.414h1.958c0.781,0,1.413-0.633,1.413-1.414v-1.958c0-0.78-0.632-1.413-1.413-1.413h-1.958   C42.612,80.084,41.979,80.717,41.979,81.497L41.979,81.497z M48.23,81.497v1.958c0,0.781,0.632,1.414,1.413,1.414h1.958   c0.78,0,1.413-0.633,1.413-1.414v-1.958c0-0.78-0.633-1.413-1.413-1.413h-1.958C48.862,80.084,48.23,80.717,48.23,81.497   L48.23,81.497z M54.479,81.497v1.958c0,0.781,0.633,1.414,1.414,1.414h1.959c0.779,0,1.412-0.633,1.412-1.414v-1.958   c0-0.78-0.633-1.413-1.412-1.413h-1.959C55.111,80.084,54.479,80.717,54.479,81.497L54.479,81.497z M60.73,81.497v1.958   c0,0.781,0.634,1.414,1.413,1.414h1.958c0.779,0,1.411-0.633,1.411-1.414v-1.958c0-0.78-0.632-1.413-1.411-1.413h-1.958   C61.364,80.084,60.73,80.717,60.73,81.497L60.73,81.497z M66.979,81.497v1.958c0,0.781,0.632,1.414,1.413,1.414h1.958   c0.781,0,1.413-0.633,1.413-1.414v-1.958c0-0.78-0.632-1.413-1.413-1.413h-1.958C67.611,80.084,66.979,80.717,66.979,81.497   L66.979,81.497z M73.23,81.497v1.958c0,0.781,0.632,1.414,1.414,1.414h1.957c0.779,0,1.412-0.633,1.412-1.414v-1.958   c0-0.78-0.633-1.413-1.412-1.413h-1.957C73.862,80.084,73.23,80.717,73.23,81.497L73.23,81.497z M79.48,81.497v1.958   c0,0.781,0.633,1.414,1.412,1.414h1.958c0.78,0,1.413-0.633,1.413-1.414v-1.958c0-0.78-0.633-1.413-1.413-1.413h-1.958   C80.113,80.084,79.48,80.717,79.48,81.497L79.48,81.497z M20.089,87.301v1.959c0,0.779,0.633,1.412,1.413,1.412h1.958   c0.78,0,1.413-0.633,1.413-1.412v-1.959c0-0.78-0.633-1.412-1.413-1.412h-1.958C20.722,85.889,20.089,86.521,20.089,87.301   L20.089,87.301z M13.84,75.692v1.959c0,0.78,0.632,1.413,1.413,1.413h1.958c0.781,0,1.413-0.633,1.413-1.413v-1.959   c0-0.778-0.632-1.412-1.413-1.412h-1.958C14.472,74.28,13.84,74.914,13.84,75.692L13.84,75.692z M20.09,75.692v1.959   c0,0.78,0.632,1.413,1.413,1.413h1.958c0.78,0,1.413-0.633,1.413-1.413v-1.959c0-0.778-0.632-1.412-1.413-1.412h-1.958   C20.722,74.28,20.09,74.914,20.09,75.692L20.09,75.692z M26.34,75.692v1.959c0,0.78,0.632,1.413,1.412,1.413h1.958   c0.78,0,1.413-0.633,1.413-1.413v-1.959c0-0.778-0.633-1.412-1.413-1.412h-1.958C26.972,74.28,26.34,74.914,26.34,75.692   L26.34,75.692z M32.589,75.692v1.959c0,0.78,0.633,1.413,1.414,1.413h1.958c0.78,0,1.412-0.633,1.412-1.413v-1.959   c0-0.778-0.632-1.412-1.412-1.412h-1.958C33.222,74.28,32.589,74.914,32.589,75.692L32.589,75.692z M38.84,75.692v1.959   c0,0.78,0.633,1.413,1.413,1.413h1.958c0.78,0,1.412-0.633,1.412-1.413v-1.959c0-0.778-0.632-1.412-1.412-1.412h-1.958   C39.473,74.28,38.84,74.914,38.84,75.692L38.84,75.692z M45.091,75.692v1.959c0,0.78,0.631,1.413,1.412,1.413h1.958   c0.781,0,1.413-0.633,1.413-1.413v-1.959c0-0.778-0.632-1.412-1.413-1.412h-1.958C45.722,74.28,45.091,74.914,45.091,75.692   L45.091,75.692z M51.34,75.692v1.959c0,0.78,0.634,1.413,1.412,1.413h1.959c0.781,0,1.413-0.633,1.413-1.413v-1.959   c0-0.778-0.632-1.412-1.413-1.412h-1.959C51.974,74.28,51.34,74.914,51.34,75.692L51.34,75.692z M57.59,75.692v1.959   c0,0.78,0.633,1.413,1.414,1.413h1.957c0.78,0,1.414-0.633,1.414-1.413v-1.959c0-0.778-0.634-1.412-1.414-1.412h-1.957   C58.223,74.28,57.59,74.914,57.59,75.692L57.59,75.692z M63.842,75.692v1.959c0,0.78,0.633,1.413,1.411,1.413h1.958   c0.781,0,1.414-0.633,1.414-1.413v-1.959c0-0.778-0.633-1.412-1.414-1.412h-1.958C64.475,74.28,63.842,74.914,63.842,75.692   L63.842,75.692z M70.091,75.692v1.959c0,0.78,0.632,1.413,1.413,1.413h1.958c0.78,0,1.413-0.633,1.413-1.413v-1.959   c0-0.778-0.633-1.412-1.413-1.412h-1.958C70.723,74.28,70.091,74.914,70.091,75.692L70.091,75.692z M76.341,75.692v1.959   c0,0.78,0.634,1.413,1.413,1.413h1.958c0.779,0,1.411-0.633,1.411-1.413v-1.959c0-0.778-0.632-1.412-1.411-1.412h-1.958   C76.975,74.28,76.341,74.914,76.341,75.692L76.341,75.692z M82.59,75.692v1.959c0,0.78,0.634,1.413,1.414,1.413h1.959   c0.779,0,1.412-0.633,1.412-1.413v-1.959c0-0.778-0.633-1.412-1.412-1.412h-1.959C83.224,74.28,82.59,74.914,82.59,75.692   L82.59,75.692z M26.339,87.301v1.959c0,0.779,0.632,1.412,1.413,1.412h1.958c0.781,0,1.413-0.633,1.413-1.412v-1.959   c0-0.78-0.632-1.412-1.413-1.412h-1.958C26.972,85.889,26.339,86.521,26.339,87.301L26.339,87.301z M32.589,87.301v1.959   c0,0.779,0.633,1.412,1.414,1.412h1.958c0.78,0,1.412-0.633,1.412-1.412v-1.959c0-0.78-0.632-1.412-1.412-1.412h-1.958   C33.222,85.889,32.589,86.521,32.589,87.301L32.589,87.301z M38.839,87.301v1.959c0,0.779,0.633,1.412,1.414,1.412h1.958   c0.78,0,1.413-0.633,1.413-1.412v-1.959c0-0.78-0.632-1.412-1.413-1.412h-1.958C39.472,85.889,38.839,86.521,38.839,87.301   L38.839,87.301z M45.09,87.301v1.959c0,0.779,0.632,1.412,1.413,1.412h1.958c0.781,0,1.412-0.633,1.412-1.412v-1.959   c0-0.78-0.631-1.412-1.412-1.412h-1.958C45.722,85.889,45.09,86.521,45.09,87.301L45.09,87.301z M51.34,87.301v1.959   c0,0.779,0.634,1.412,1.412,1.412h1.959c0.781,0,1.412-0.633,1.412-1.412v-1.959c0-0.78-0.631-1.412-1.412-1.412h-1.959   C51.974,85.889,51.34,86.521,51.34,87.301L51.34,87.301z M57.59,87.301v1.959c0,0.779,0.633,1.412,1.414,1.412h1.956   c0.781,0,1.415-0.633,1.415-1.412v-1.959c0-0.78-0.634-1.412-1.415-1.412h-1.956C58.223,85.889,57.59,86.521,57.59,87.301   L57.59,87.301z M63.84,87.301v1.959c0,0.779,0.635,1.412,1.413,1.412h1.958c0.781,0,1.412-0.633,1.412-1.412v-1.959   c0-0.78-0.631-1.412-1.412-1.412h-1.958C64.475,85.889,63.84,86.521,63.84,87.301L63.84,87.301z M20.424,39.256v5.531l21.795-0.052   v1.991c-0.067,3.078-2.576,5.559-5.647,5.598l-2.65,0.004c-2.644,0-4.787,1.98-4.787,4.423c0,2.444,2.143,4.425,4.787,4.425h33.429   c2.646,0,4.79-1.98,4.79-4.425c0-2.442-2.145-4.423-4.79-4.423l-2.542-0.004c-3.07-0.039-5.579-2.52-5.646-5.598v-2.032   l21.663-0.051v-5.387h-5.002v0.708H70.52v-0.708H30.673v0.708h-5.305v-0.708H20.424L20.424,39.256z M80.826,1.904H20.424v35.939   h4.944v-0.706h5.305v0.706H70.52v-0.706h5.305v0.706h5.002V1.904L80.826,1.904z M90.958,90.406c0,4.68-3.796,8.475-8.476,8.475   H18.946c-4.683,0-8.478-3.795-8.478-8.475V40.563H4.787c-0.779,0-1.412-0.634-1.412-1.413v-6.112c0-0.779,0.632-1.413,1.412-1.413   h5.681v-5.599l8.542-0.02V0.492h63.229v25.361l8.716-0.021v5.792h5.479c0.783,0,1.416,0.634,1.416,1.413v6.112   c0,0.779-0.633,1.413-1.416,1.413h-5.479L90.958,90.406L90.958,90.406z"
   id="path2" />
</g>
<path
   style="fill:#4d4d4d;stroke-width:0.191571"
   d="m 17.216199,98.564653 c -2.948934,-0.641356 -5.3352,-2.823887 -6.229656,-5.697779 -0.337332,-1.083851 -0.354359,-2.371182 -0.354359,-26.791987 V 40.421456 H 7.4712644 c -4.2241283,0 -3.9272031,0.330891 -3.9272031,-4.376439 0,-3.254166 0.034546,-3.641419 0.3503335,-3.927203 0.2964992,-0.268329 0.8411,-0.317048 3.5440613,-0.317048 H 10.632184 V 28.927203 26.05364 h 4.214559 4.21456 V 13.314176 0.57471264 h 31.51341 31.51341 V 13.218391 25.862069 h 4.40613 4.40613 v 2.969349 2.969348 h 3.05123 3.05123 l 0.397046,0.504763 c 0.366789,0.466295 0.397046,0.756306 0.397046,3.805582 0,3.049276 -0.03026,3.339287 -0.397046,3.805582 l -0.397046,0.504763 h -3.05123 -3.05123 v 25.277927 c 0,18.120094 -0.06152,25.565389 -0.21726,26.293104 -0.73237,3.422088 -3.543192,6.112864 -6.966648,6.669109 -0.716368,0.116396 -13.23895,0.18144 -33.237548,0.17264 -25.986257,-0.01144 -32.311485,-0.0627 -33.262728,-0.269583 z M 74.8125,94.636015 c 0.261048,-0.412996 0.229646,-2.371647 -0.04238,-2.643678 -0.176353,-0.176352 -5.818,-0.229885 -24.226977,-0.229885 -23.529155,0 -24.000958,0.0072 -24.195402,0.370548 -0.348309,0.650822 -0.241884,2.076301 0.18704,2.505224 0.382506,0.382506 0.561517,0.384981 24.24072,0.335249 20.959667,-0.04402 23.877418,-0.08498 24.037004,-0.337458 z M 24.562201,90.366799 c 0.260619,-0.260617 0.357987,-0.725431 0.409132,-1.953083 0.06316,-1.516122 0.03827,-1.639915 -0.422325,-2.100515 -0.445596,-0.445596 -0.630717,-0.489446 -2.066267,-0.489446 -1.3553,0 -1.63911,0.05852 -2.020202,0.416534 -0.394979,0.371063 -0.443382,0.591604 -0.443382,2.020203 0,1.464341 0.04252,1.64619 0.489446,2.093113 0.4606,0.4606 0.584394,0.485489 2.100516,0.422326 1.227651,-0.05115 1.692465,-0.148513 1.953082,-0.409132 z m 6.063305,0.04075 c 0.47796,-0.375962 0.504762,-0.487862 0.504762,-2.10728 0,-2.309213 -0.161772,-2.476517 -2.394636,-2.476517 -1.925053,0 -2.291789,0.236998 -2.498364,1.614544 -0.202707,1.351739 0.04088,2.522774 0.619435,2.977862 0.717218,0.564163 3.047408,0.558841 3.768803,-0.0086 z m 6.356381,-0.07317 c 0.41999,-0.419988 0.47022,-0.632101 0.47022,-1.985659 0,-1.243053 -0.07137,-1.606164 -0.397046,-2.020201 -0.37312,-0.474347 -0.494856,-0.504762 -2.020201,-0.504762 -1.467923,0 -1.668126,0.04497 -2.093375,0.47022 -0.416874,0.416872 -0.470221,0.635642 -0.470221,1.928303 0,2.269879 0.287744,2.549714 2.642807,2.570176 1.23718,0.01075 1.451569,-0.04183 1.867816,-0.458077 z m 5.908029,0.253799 c 0.689059,-0.313956 0.939375,-1.101868 0.850387,-2.676745 -0.104518,-1.84968 -0.391062,-2.087676 -2.513546,-2.087676 -1.324569,0 -1.610613,0.05987 -1.990272,0.416534 -0.394979,0.371063 -0.443382,0.591604 -0.443382,2.020203 0,1.44723 0.04587,1.649537 0.470221,2.073885 0.409659,0.409661 0.642887,0.470221 1.810908,0.470221 0.737379,0 1.554437,-0.09739 1.815684,-0.216422 z m 6.509536,-0.180624 c 0.4755,-0.374029 0.504763,-0.4927 0.504763,-2.047041 0,-1.430427 -0.05543,-1.708994 -0.416535,-2.093375 -0.369841,-0.393676 -0.59296,-0.443381 -1.990272,-0.443381 -2.265881,0 -2.478251,0.205176 -2.478251,2.394297 0,1.583383 0.02538,1.683699 0.537502,2.124205 0.462176,0.397548 0.733739,0.462341 1.937768,0.462341 1.126533,0 1.498937,-0.07762 1.905025,-0.397046 z m 6.462226,-0.15327 c 0.289697,-0.357761 0.364376,-0.761514 0.364376,-1.970037 0,-1.358454 -0.04999,-1.57004 -0.470221,-1.99027 -0.425249,-0.425251 -0.625452,-0.47022 -2.093375,-0.47022 -1.525345,0 -1.647081,0.03041 -2.020201,0.504762 -0.320774,0.407799 -0.397046,0.778221 -0.397046,1.928303 0,2.271956 0.330214,2.571707 2.748651,2.495082 1.315556,-0.04168 1.548977,-0.103869 1.867816,-0.49762 z m 6.029636,0.108009 c 0.569573,-0.489927 0.814692,-1.815732 0.573447,-3.101676 -0.22364,-1.192105 -0.643861,-1.43686 -2.466953,-1.43686 -2.235959,0 -2.430758,0.199063 -2.430758,2.483979 0,1.611356 0.0271,1.724088 0.504762,2.099818 0.406088,0.319429 0.778493,0.397046 1.905025,0.397046 1.18651,0 1.478761,-0.06752 1.914477,-0.442307 z m 6.316627,-0.02791 c 0.423076,-0.423074 0.47022,-0.628312 0.47022,-2.047038 0,-1.355301 -0.05852,-1.639111 -0.416535,-2.020203 -0.369841,-0.393676 -0.592959,-0.443381 -1.990272,-0.443381 -2.152484,0 -2.435572,0.23264 -2.540392,2.087676 -0.08661,1.532795 0.159429,2.358569 0.794168,2.665441 0.229569,0.110986 1.046316,0.20763 1.814995,0.21476 1.237766,0.01147 1.451371,-0.04081 1.867816,-0.457255 z m 6.35426,0.03242 c 0.260619,-0.260617 0.357987,-0.725431 0.409132,-1.953083 0.06316,-1.516122 0.03827,-1.639915 -0.422325,-2.100515 -0.445596,-0.445596 -0.630717,-0.489446 -2.066267,-0.489446 -1.3553,0 -1.639111,0.05852 -2.020203,0.416534 -0.394979,0.371063 -0.443381,0.591604 -0.443381,2.020203 0,1.464341 0.04252,1.64619 0.489446,2.093113 0.4606,0.4606 0.584393,0.485489 2.100516,0.422326 1.227651,-0.05115 1.692465,-0.148513 1.953082,-0.409132 z m 6.063305,0.04075 c 0.47796,-0.375962 0.504762,-0.487862 0.504762,-2.10728 0,-2.309213 -0.161772,-2.476517 -2.394636,-2.476517 -2.232864,0 -2.394636,0.167304 -2.394636,2.476517 0,1.619418 0.0268,1.731318 0.504763,2.10728 0.404944,0.318528 0.778668,0.397046 1.889873,0.397046 1.111205,0 1.484929,-0.07852 1.889874,-0.397046 z M 21.47414,84.462646 c 0.297097,-0.328288 0.36494,-0.698493 0.36494,-1.991382 0,-2.221843 -0.174935,-2.394636 -2.424327,-2.394636 -2.282456,0 -2.46073,0.170397 -2.46073,2.35201 0,2.308521 0.125495,2.437262 2.375808,2.437262 1.565658,0 1.8232,-0.04843 2.144309,-0.403254 z m 6.207852,0.02011 c 0.323041,-0.323041 0.383142,-0.638569 0.383142,-2.011495 0,-2.232864 -0.167304,-2.394636 -2.476517,-2.394636 -1.619418,0 -1.731318,0.0268 -2.10728,0.504763 -0.318529,0.404944 -0.397046,0.778668 -0.397046,1.889873 0,1.111205 0.07852,1.484929 0.397046,1.889874 0.375962,0.47796 0.487862,0.504762 2.10728,0.504762 1.454806,0 1.767458,-0.05722 2.093375,-0.383141 z m 6.307935,-0.121621 c 0.318529,-0.404945 0.397046,-0.778669 0.397046,-1.889874 0,-1.111205 -0.07852,-1.484929 -0.397046,-1.889873 -0.375961,-0.47796 -0.487862,-0.504763 -2.107279,-0.504763 -2.309213,0 -2.476518,0.161772 -2.476518,2.394636 0,2.232864 0.167305,2.394636 2.476518,2.394636 1.619417,0 1.731318,-0.0268 2.107279,-0.504762 z m 6.176981,0.187714 c 0.489952,-0.4434 0.515356,-3.589208 0.03328,-4.12189 -0.4434,-0.489952 -3.589208,-0.515357 -4.12189,-0.03329 -0.489952,0.443401 -0.515357,3.589209 -0.03329,4.121891 0.443401,0.489952 3.589209,0.515356 4.121891,0.03328 z m 6.289031,-0.06609 c 0.32304,-0.323041 0.383141,-0.638569 0.383141,-2.011495 0,-2.232864 -0.167304,-2.394636 -2.476517,-2.394636 -1.619417,0 -1.731318,0.0268 -2.107279,0.504763 -0.318529,0.404944 -0.397046,0.778668 -0.397046,1.889873 0,1.111205 0.07852,1.484929 0.397046,1.889874 0.375961,0.47796 0.487862,0.504762 2.107279,0.504762 1.454807,0 1.767458,-0.05722 2.093376,-0.383141 z m 6.307935,-0.121621 c 0.318528,-0.404945 0.397046,-0.778669 0.397046,-1.889874 0,-1.111205 -0.07852,-1.484929 -0.397046,-1.889873 -0.375962,-0.47796 -0.487863,-0.504763 -2.10728,-0.504763 -2.309213,0 -2.476517,0.161772 -2.476517,2.394636 0,2.232864 0.167304,2.394636 2.476517,2.394636 1.619417,0 1.731318,-0.0268 2.10728,-0.504762 z m 6.144172,0.121621 c 0.32304,-0.323041 0.383142,-0.638569 0.383142,-2.011495 0,-2.22982 -0.169366,-2.394636 -2.46073,-2.394636 -2.249393,0 -2.424328,0.172793 -2.424328,2.394636 0,2.221843 0.174935,2.394636 2.424328,2.394636 1.439019,0 1.752203,-0.05776 2.077588,-0.383141 z m 6.053697,0.23653 c 0.445211,-0.297276 0.651284,-1.026722 0.651284,-2.305381 0,-1.053178 -0.08211,-1.43214 -0.397046,-1.832517 -0.375529,-0.477406 -0.488979,-0.504763 -2.093376,-0.504763 -1.604396,0 -1.717846,0.02736 -2.093375,0.504763 -0.323364,0.41109 -0.397046,0.77767 -0.397046,1.975371 0,2.092795 0.23086,2.310106 2.449992,2.306205 0.91783,-0.0015 1.763634,-0.06627 1.879567,-0.143678 z m 6.512397,-0.256643 c 0.297098,-0.328288 0.36494,-0.698493 0.36494,-1.991382 0,-2.221843 -0.174934,-2.394636 -2.424327,-2.394636 -2.282456,0 -2.46073,0.170397 -2.46073,2.35201 0,2.308521 0.125494,2.437262 2.375808,2.437262 1.565658,0 1.8232,-0.04843 2.144309,-0.403254 z m 6.207852,0.02011 c 0.323041,-0.323041 0.383142,-0.638569 0.383142,-2.011495 0,-2.232864 -0.167304,-2.394636 -2.476517,-2.394636 -1.619418,0 -1.731318,0.0268 -2.10728,0.504763 -0.572653,0.728009 -0.572653,3.051737 0,3.779747 0.375962,0.47796 0.487862,0.504762 2.10728,0.504762 1.454806,0 1.767458,-0.05722 2.093375,-0.383141 z m 6.307935,-0.121621 c 0.318529,-0.404945 0.397046,-0.778669 0.397046,-1.889874 0,-1.111205 -0.07852,-1.484929 -0.397046,-1.889873 -0.375961,-0.47796 -0.487862,-0.504763 -2.107279,-0.504763 -2.309213,0 -2.476518,0.161772 -2.476518,2.394636 0,2.232864 0.167305,2.394636 2.476518,2.394636 1.619417,0 1.731318,-0.0268 2.107279,-0.504762 z M 18.23478,78.702239 c 0.393676,-0.369841 0.443381,-0.592959 0.443381,-1.990272 0,-2.152484 -0.23264,-2.435572 -2.087677,-2.540392 -2.422083,-0.136859 -2.996382,0.437438 -2.859522,2.859523 0.104517,1.84968 0.391061,2.087676 2.513546,2.087676 1.324569,0 1.610613,-0.05987 1.990272,-0.416535 z m 6.295,-0.05369 C 24.939441,78.238895 25,78.005667 25,76.837646 c 0,-2.318393 -0.522648,-2.800018 -2.893166,-2.666071 -1.849682,0.104517 -2.087677,0.391061 -2.087677,2.513546 0,1.324569 0.05986,1.610613 0.416535,1.990272 0.371064,0.394979 0.591604,0.443381 2.020203,0.443381 1.44723,0 1.649536,-0.04587 2.073885,-0.47022 z m 6.217346,0.08708 c 0.325918,-0.325917 0.383142,-0.638569 0.383142,-2.093375 0,-1.619418 -0.0268,-1.731318 -0.504762,-2.10728 -0.404945,-0.318529 -0.778669,-0.397046 -1.889874,-0.397046 -1.111205,0 -1.484929,0.07852 -1.889873,0.397046 -0.47796,0.375962 -0.504763,0.487862 -0.504763,2.10728 0,2.309212 0.161772,2.476517 2.394636,2.476517 1.372925,0 1.688454,-0.0601 2.011494,-0.383142 z m 6.2616,-0.03339 c 0.393676,-0.369841 0.443381,-0.592959 0.443381,-1.990272 0,-2.152484 -0.23264,-2.435572 -2.087676,-2.540392 -1.58491,-0.08955 -2.459075,0.190546 -2.717713,0.870814 -0.0965,0.253814 -0.175454,1.063236 -0.175454,1.798713 0,1.16435 0.06079,1.398024 0.470221,1.807452 0.423074,0.423076 0.628312,0.47022 2.047038,0.47022 1.355301,0 1.639111,-0.05852 2.020203,-0.416535 z m 6.209613,0.05644 c 0.372759,-0.301843 0.457192,-0.581299 0.521964,-1.727586 0.133946,-2.370519 -0.347678,-2.893167 -2.666071,-2.893167 -1.168021,0 -1.401249,0.06056 -1.810908,0.47022 -0.423077,0.423075 -0.470221,0.628313 -0.470221,2.047039 0,1.3553 0.05852,1.639111 0.416535,2.020203 0.369841,0.393676 0.59296,0.443381 1.990272,0.443381 1.25472,0 1.663881,-0.07299 2.018429,-0.36009 z m 6.302734,-0.02305 c 0.325917,-0.325917 0.383142,-0.638569 0.383142,-2.093375 0,-1.619418 -0.0268,-1.731318 -0.504763,-2.10728 -0.406088,-0.319429 -0.778492,-0.397046 -1.905025,-0.397046 -1.204029,0 -1.475592,0.06479 -1.937768,0.462341 -0.512119,0.440506 -0.537502,0.540822 -0.537502,2.124205 0,2.195893 0.208128,2.394297 2.511644,2.394297 1.351703,0 1.668025,-0.0609 1.990272,-0.383142 z m 6.307935,-0.121621 c 0.557626,-0.708906 0.577592,-3.252814 0.03083,-3.928038 -0.336722,-0.415835 -0.507791,-0.452257 -2.124205,-0.452257 -1.616414,0 -1.787483,0.03642 -2.124205,0.452257 -0.546762,0.675224 -0.526797,3.219132 0.03083,3.928038 0.375528,0.477407 0.488979,0.504763 2.093375,0.504763 1.604397,0 1.717847,-0.02736 2.093376,-0.504763 z m 6.133486,0.132307 c 0.464845,-0.464845 0.660397,-1.461626 0.537556,-2.740061 -0.140322,-1.460343 -0.691311,-1.868326 -2.523213,-1.868326 -1.126532,0 -1.498937,0.07762 -1.905025,0.397046 -0.47796,0.375962 -0.504762,0.487862 -0.504762,2.10728 0,2.309212 0.161772,2.476517 2.394636,2.476517 1.357352,0 1.690339,-0.06199 2.000808,-0.372456 z m 6.272286,-0.04408 c 0.393676,-0.369841 0.443381,-0.592959 0.443381,-1.990272 0,-2.152484 -0.23264,-2.435572 -2.087676,-2.540392 -2.422085,-0.136859 -2.996382,0.437438 -2.859523,2.859523 0.104517,1.84968 0.391061,2.087676 2.513546,2.087676 1.324569,0 1.610613,-0.05987 1.990272,-0.416535 z m 6.295,-0.05369 C 74.939209,78.239126 75,78.005452 75,76.841102 c 0,-0.735477 -0.07895,-1.544899 -0.175454,-1.798713 -0.258638,-0.680268 -1.132803,-0.960368 -2.717713,-0.870814 -1.84968,0.104517 -2.087676,0.391061 -2.087676,2.513546 0,1.324569 0.05987,1.610613 0.416535,1.990272 0.371063,0.394979 0.591603,0.443381 2.020203,0.443381 1.44723,0 1.649536,-0.04587 2.073885,-0.47022 z m 6.217346,0.08708 c 0.325918,-0.325917 0.383142,-0.638569 0.383142,-2.093375 0,-1.619418 -0.0268,-1.731318 -0.504762,-2.10728 -0.404945,-0.318529 -0.778669,-0.397046 -1.889874,-0.397046 -1.111205,0 -1.484929,0.07852 -1.889873,0.397046 -0.47796,0.375962 -0.504763,0.487862 -0.504763,2.10728 0,2.309212 0.161772,2.476517 2.394636,2.476517 1.372925,0 1.688454,-0.0601 2.011494,-0.383142 z m 6.2616,-0.03339 c 0.393676,-0.369841 0.443381,-0.592959 0.443381,-1.990272 0,-2.152484 -0.23264,-2.435572 -2.087676,-2.540392 -1.58491,-0.08955 -2.459075,0.190546 -2.717713,0.870814 -0.0965,0.253814 -0.175454,1.063236 -0.175454,1.798713 0,1.16435 0.06079,1.398024 0.470221,1.807452 0.423074,0.423076 0.628312,0.47022 2.047038,0.47022 1.355301,0 1.639111,-0.05852 2.020203,-0.416535 z M 69.812814,60.632184 c 3.277879,-1.813358 3.180868,-6.132031 -0.176799,-7.87046 -0.505818,-0.261885 -1.329222,-0.378824 -3.35249,-0.476111 -2.155069,-0.103626 -2.852515,-0.209352 -3.549943,-0.53814 -1.287266,-0.606852 -2.14286,-1.392113 -2.769061,-2.541429 -0.466069,-0.85541 -0.572395,-1.304628 -0.639598,-2.702213 l -0.0806,-1.676245 H 70.09151 80.938697 V 41.954023 39.08046 H 78.35249 c -2.458492,0 -2.586206,0.01893 -2.586206,0.383142 0,0.36422 -0.127715,0.383141 -2.586207,0.383141 -2.458493,0 -2.586207,-0.01893 -2.586207,-0.383141 0,-0.380698 -0.127715,-0.383142 -20.019157,-0.383142 -19.891443,0 -20.019157,0.0025 -20.019157,0.383142 0,0.36422 -0.127715,0.383141 -2.586207,0.383141 -2.458493,0 -2.586207,-0.01893 -2.586207,-0.383141 0,-0.363495 -0.127715,-0.383142 -2.490422,-0.383142 h -2.490421 v 2.873563 2.873563 h 10.823755 10.823754 v 1.402655 c 0,0.773997 -0.135239,1.799562 -0.301743,2.288225 -0.412274,1.209955 -1.604988,2.50466 -2.883678,3.130266 -0.956885,0.468161 -1.348421,0.53354 -3.872498,0.646643 -3.049563,0.13665 -3.533067,0.279108 -4.613169,1.359207 -0.822176,0.822179 -1.177846,1.573782 -1.298659,2.744336 -0.201134,1.948816 1.21729,3.997101 3.193767,4.611979 0.724241,0.22531 3.817511,0.263885 18.684026,0.233005 l 17.816092,-0.03701 z M 25.383142,37.547893 c 0,-0.364221 0.127714,-0.383142 2.586207,-0.383142 2.458492,0 2.586207,0.01893 2.586207,0.383142 0,0.380697 0.127714,0.383141 20.019157,0.383141 19.891442,0 20.019157,-0.0025 20.019157,-0.383141 0,-0.364221 0.127714,-0.383142 2.586207,-0.383142 2.458492,0 2.586207,0.01893 2.586207,0.383142 0,0.36422 0.127714,0.383141 2.586206,0.383141 h 2.586207 V 19.827586 1.7241379 H 50.670498 20.402299 V 19.827586 37.931034 h 2.490421 c 2.362707,0 2.490422,-0.01965 2.490422,-0.383141 z M 10.632184,34.099617 V 33.333333 H 7.5670498 4.5019157 v 0.766284 0.766283 h 3.0651341 3.0651342 z m 85.823755,0 v -0.766284 h -2.777778 -2.777778 v 0.766284 0.766283 h 2.777778 2.777778 z"
   id="path253" /><g
   aria-label="1, 2, 3..."
   transform="translate(3.2851413,4.3208214)"
   id="text164"
   style="white-space:pre;shape-inside:url(#rect166);fill:#4d4d4d"><path
     d="m 32.599844,17.053268 h -1.032 v -5.988 q 0,-0.516 0.012,-0.828 0.012,-0.3120002 0.036,-0.6480002 -0.192,0.192 -0.348,0.324 -0.156,0.1320002 -0.396,0.3360002 l -0.912,0.744 -0.552,-0.708 2.316,-1.8000002 h 0.876 z"
     id="path167" /><path
     d="m 37.50785,15.793268 q -0.156,0.636 -0.456,1.392 -0.288,0.768 -0.576,1.416 h -0.78 q 0.168,-0.684 0.336,-1.5 0.18,-0.816 0.264,-1.44 h 1.128 z"
     id="path169" /><path
     d="m 47.779848,17.053268 h -5.664 v -0.876 l 2.244,-2.268 q 0.648,-0.648 1.092,-1.152 0.444,-0.504 0.672,-0.984 0.228,-0.492 0.228,-1.068 0,-0.7080002 -0.42,-1.0680002 -0.42,-0.372 -1.092,-0.372 -0.624,0 -1.104,0.216 -0.468,0.216 -0.96,0.6000002 l -0.564,-0.7080002 q 0.504,-0.42 1.152,-0.708 0.66,-0.3 1.476,-0.3 1.2,0 1.896,0.612 0.696,0.6 0.696,1.6680002 0,0.672 -0.276,1.26 -0.276,0.588 -0.768,1.164 -0.492,0.564 -1.152,1.212 l -1.788,1.764 v 0.048 h 4.332 z"
     id="path171" /><path
     d="m 50.707854,15.793268 q -0.156,0.636 -0.456,1.392 -0.288,0.768 -0.576,1.416 h -0.78 q 0.168,-0.684 0.336,-1.5 0.18,-0.816 0.264,-1.44 h 1.128 z"
     id="path173" /><path
     d="m 60.655853,10.489268 q 0,0.864 -0.48,1.38 -0.48,0.504 -1.296,0.672 v 0.048 q 1.032,0.12 1.536,0.648 0.504,0.528 0.504,1.38 0,0.744 -0.348,1.332 -0.348,0.576 -1.08,0.9 -0.72,0.324 -1.86,0.324 -0.672,0 -1.248,-0.108 -0.576,-0.096 -1.104,-0.36 v -0.984 q 0.54,0.264 1.164,0.42 0.624,0.144 1.2,0.144 1.152,0 1.656,-0.444 0.516,-0.456 0.516,-1.248 0,-0.804 -0.636,-1.152 -0.624,-0.36 -1.764,-0.36 h -0.828 v -0.9 h 0.84 q 1.056,0 1.596,-0.444 0.552,-0.444 0.552,-1.176 0,-0.6240002 -0.42,-0.9600002 -0.42,-0.348 -1.14,-0.348 -0.696,0 -1.188,0.204 -0.492,0.204 -0.972,0.516 l -0.528,-0.72 q 0.456,-0.36 1.128,-0.624 0.684,-0.264 1.548,-0.264 1.344,0 1.992,0.6 0.66,0.6 0.66,1.5240002 z"
     id="path175" /><path
     d="m 62.467859,16.405268 q 0,-0.444 0.216,-0.624 0.216,-0.18 0.516,-0.18 0.312,0 0.528,0.18 0.228,0.18 0.228,0.624 0,0.432 -0.228,0.624 -0.216,0.192 -0.528,0.192 -0.3,0 -0.516,-0.192 -0.216,-0.192 -0.216,-0.624 z"
     id="path177" /><path
     d="m 65.683855,16.405268 q 0,-0.444 0.216,-0.624 0.216,-0.18 0.516,-0.18 0.312,0 0.528,0.18 0.228,0.18 0.228,0.624 0,0.432 -0.228,0.624 -0.216,0.192 -0.528,0.192 -0.3,0 -0.516,-0.192 -0.216,-0.192 -0.216,-0.624 z"
     id="path179" /><path
     d="m 68.899851,16.405268 q 0,-0.444 0.216,-0.624 0.216,-0.18 0.516,-0.18 0.312,0 0.528,0.18 0.228,0.18 0.228,0.624 0,0.432 -0.228,0.624 -0.216,0.192 -0.528,0.192 -0.3,0 -0.516,-0.192 -0.216,-0.192 -0.216,-0.624 z"
     id="path181" /></g></svg>
